<svg width="259" height="240" viewBox="0 0 259 240" fill="none" xmlns="http://www.w3.org/2000/svg">
<ellipse cx="132.133" cy="120" rx="126.867" ry="120" fill="#FD4084"/>
<path d="M87.5261 97.9261L110.562 89.1811C109.462 91.5592 106.947 94.0042 103.015 96.5162C99.0838 99.0281 94.5425 101.575 89.3914 104.158C84.2157 106.672 80.8666 108.414 79.344 109.384C72.6222 113.896 70.5263 119.711 73.0563 126.828C70.145 125.424 68.2349 123.443 67.326 120.887C64.1328 111.904 70.8662 104.251 87.5261 97.9261ZM115.807 87.1901L123.211 84.3792C121.138 88.6167 120.876 98.1662 122.424 113.028C124.016 127.794 126.126 138.874 128.755 146.267C130.621 151.519 132.871 154.782 135.503 156.057C136.645 156.643 137.833 156.702 139.067 156.233C140.301 155.765 141.444 154.821 142.496 153.402L143.444 154.101C142.976 155.847 141.692 157.707 139.592 159.68C137.468 161.585 135.206 162.992 132.806 163.903C129.241 165.257 126.353 164.902 124.141 162.84C121.93 160.778 119.96 157.644 118.231 153.438C116.979 149.914 115.803 145.185 114.705 139.249L91.1546 148.19C84.8202 162.985 79.9797 174.978 76.6331 184.169L66.3492 188.073C70.6813 179.684 77.2276 166.142 85.9879 147.445C97.2315 123.258 104.392 106.737 107.47 97.8836C108.251 95.7047 108.874 94.1742 109.339 93.2921C109.779 92.3408 110.562 91.2594 111.687 90.0479C112.857 88.7413 114.23 87.7887 115.807 87.1901ZM110.41 105.825C105.222 116.186 99.6979 128.007 93.8373 141.289L113.582 133.794C112.385 126.485 111.327 117.162 110.41 105.825ZM203.728 120.746C203.945 127.487 202.485 132.354 199.348 135.349C197.654 136.933 195.966 138.201 194.281 139.154C192.641 140.012 190.45 140.962 187.707 142.003L156.547 153.832C153.805 154.873 151.746 153.459 150.37 149.589C146.858 139.708 148.001 116.767 153.8 80.7661C154.322 78.2938 154.592 76.9755 154.612 76.8113C148.833 79.1618 143.333 82.6223 138.11 87.1929C132.931 91.6683 130.415 95.6429 130.56 99.1166C130.565 99.35 130.465 99.5057 130.259 99.5837C129.642 99.818 129.174 99.486 128.855 98.5877C128.806 98.4495 128.783 97.3996 128.786 95.4379C128.72 93.5023 129.144 91.3023 130.058 88.8381C130.971 86.3738 132.263 84.3152 133.932 82.6622C136.8 80.0049 140.702 77.7393 145.638 75.8654L168.983 67.0033C166.933 70.2124 165.105 76.6704 163.498 86.3775C161.959 96.0585 160.772 106.508 159.936 117.726C159.143 128.849 159.472 136.449 160.921 140.526C162.517 145.017 165.75 146.339 170.617 144.491C190.5 136.943 200.96 128.502 201.999 119.168C202.063 118.908 202.197 118.739 202.403 118.661C202.883 118.479 203.246 118.734 203.491 119.425C203.54 119.563 203.619 120.003 203.728 120.746Z" fill="white"/>
</svg>
